<svg width="364" height="200" viewBox="0 0 364 200" fill="none" xmlns="http://www.w3.org/2000/svg">
<g clip-path="url(#clip0)">
<path d="M134.6 12.5H21.4C16 12.5 11.7 16.9 11.7 22.2V116.1C11.7 121.5 16.1 125.8 21.4 125.8H25.7C27.1 125.8 28.2999 127 28.2999 128.4V144.1C28.2999 146 30.6 146.9 31.9 145.6L49.7 127.8C50.9 126.6 52.6 125.9 54.4 125.9H134.5C139.9 125.9 144.2 121.5 144.2 116.2V22.2C144.4 16.8 140 12.5 134.6 12.5Z" fill="#FFD57E"/>
<path d="M57.8 61.9C57.7 62.6 58.5 63.4 58.4 64.1C58.3 64.8 57.4 65.5 57.4 66.2C57.4 66.9 58.3 67.6 58.3 68.3C58.3 69 57.5 69.8 57.6 70.5C57.7 71.2 58.7 71.7 58.8 72.4C59 73.1 58.3 74.1 58.5 74.7C58.7 75.4 59.8 75.6 60.1 76.3C60.4 76.9 60 78 60.4 78.6C60.8 79.2 61.9 79.1 62.4 79.7C62.9 80.2 62.7 81.3 63.3 81.8C63.8 82.2 64.9 81.9 65.5 82.3C66.1 82.7 66.2 83.8 66.8 84.1C67.4 84.4 68.4 83.9 69.1 84.2C69.7 84.5 70 85.6 70.7 85.8C71.3 86 72.3 85.4 73 85.5C73.7 85.7 74.1 86.7 74.8 86.9C75.5 87 76.4 86.3 77.1 86.4C77.8 86.5 78.3 87.5 79 87.6C79.7 87.7 80.5 86.9 81.2 86.9C81.9 87 82.5 87.9 83.2 87.9C83.9 87.9 84.7 87 85.3 87C86 87 86.7 87.8 87.4 87.8C88.1 87.7 88.7 86.7 89.4 86.6C90.1 86.5 91 87.2 91.6 87C92.3 86.8 92.7 85.7 93.4 85.5C94.1 85.3 95.1 85.8 95.7 85.5C96.4 85.2 96.6 84 97.2 83.7C97.8 83.3 98.9 83.6 99.4 83.2C100 82.7 99.9 81.6 100.4 81.1C100.9 80.6 102 80.6 102.5 80C102.9 79.4 102.6 78.3 103 77.7C103.4 77.1 104.5 76.9 104.8 76.2C105.1 75.6 104.6 74.6 104.8 73.9C105 73.2 106.1 72.8 106.3 72.1C106.5 71.4 105.8 70.5 106 69.8C106.1 69.1 107.2 68.5 107.3 67.8C107.4 67.1 106.6 66.2 106.7 65.5C106.8 64.8 107.7 64 107.6 63.2C107.6 62.5 106.7 61.8 106.6 61.1C106.5 60.4 107.3 59.5 107.2 58.7C107.1 58 106 57.5 105.8 56.8C105.6 56.1 106.2 55.1 106 54.4C105.8 53.7 104.7 53.4 104.4 52.7C104.1 52 104.6 50.9 104.2 50.3C103.8 49.7 102.7 49.5 102.3 48.9C101.9 48.3 102.2 47.1 101.7 46.6C101.2 46 100.1 46.1 99.6 45.5C99.1 45 99.2 43.8 98.7 43.3C98.2 42.8 97 43.1 96.4 42.6C95.8 42.2 95.7 41 95.1 40.6C94.5 40.2 93.4 40.7 92.7 40.4C92 40.1 91.7 39 91 38.7C90.3 38.5 89.3 39.1 88.6 39C87.9 38.8 87.4 37.8 86.6 37.7C85.9 37.6 85 38.5 84.3 38.4C83.6 38.4 82.8 37.5 82.1 37.6C81.4 37.7 80.7 38.7 80 38.8C79.3 38.9 78.4 38.2 77.6 38.5C76.9 38.7 76.4 39.8 75.7 40.1C75 40.4 74 39.9 73.3 40.2C72.6 40.5 72.4 41.7 71.7 42.1C71.1 42.5 70 42.2 69.3 42.6C68.7 43 68.6 44.2 68.1 44.7C67.5 45.2 66.4 45.1 65.8 45.6C65.3 46.1 65.4 47.3 64.9 47.9C64.4 48.5 63.2 48.5 62.8 49.1C62.4 49.7 62.7 50.8 62.2 51.5C61.8 52.1 60.7 52.4 60.3 53C59.9 53.7 60.4 54.7 60.1 55.4C59.8 56.1 58.7 56.5 58.5 57.2C58.3 57.9 58.9 58.9 58.7 59.6C59 60.5 58 61.1 57.8 61.9Z" fill="black"/>
<path d="M35.4 63.6001C35.8 61.1001 36.4 58.3001 37.2 55.4001L41 40.0001C41.1 39.5001 41.2 39.0001 41.1 38.5001L40.7 34.1001L40.9 29.5001L40.3 21.9001C40.3 21.8001 40.3 21.7001 40.3 21.5001C40.4 21.0001 40.9 20.7001 41.4 20.8001C41.8 20.9001 42 21.2001 42.1 21.5001L42.9 28.6001H43.3L43.7 19.2001C43.7 19.1001 43.7 19.1001 43.7 19.0001C43.8 18.5001 44.4 18.2001 44.9 18.3001C45.3 18.4001 45.6 18.8001 45.6 19.3001L45.5 28.4001H46L47.1 18.9001C47.1 18.8001 47.1 18.8001 47.1 18.7001C47.2 18.1001 47.8 17.8001 48.4 17.9001C48.9 18.0001 49.2 18.5001 49.2 19.1001L48.5 28.8001L49 29.0001L50.6 21.1001C50.7 20.6001 51.2 20.3001 51.7 20.4001C52.2 20.5001 52.5 21.0001 52.4 21.5001L50.7 33.3001L54.1 31.2001C54.7 30.8001 55.4 30.7001 56 30.9001L56.8 31.1001L52 37.1001L50.2 39.2001C49.7 39.8001 49.4 40.5001 49.3 41.2001L45.8 68.8001C47.2 71.2001 63.4 79.5001 63.4 79.5001C66.1 82.1001 60.4 96.4001 60.4 96.4001L54.5 98.8001L47.4 94.2001C47.4 94.2001 36.7 76.7001 35.2 70.7001C34.7 69.2001 34.9 66.7001 35.4 63.6001Z" fill="#884934"/>
<path d="M106 126L103.9 114.9L90.6 117.2C90.6 117.2 91.3 120.8 92.4 126H106Z" fill="#884934"/>
<path d="M94.6 126L94.1 122.4L96.4 121.5L96.6 125.9" fill="#562D13"/>
<path d="M94.5 125.2H94.1C91.7 118.9 90.2 113.2 90.2 113.2L103.5 110.9L105 120.4C103.8 122 96.5 125.2 94.5 125.2Z" fill="#562D13"/>
<path d="M52.3 95.4L45.5 91C45.5 91 44.1 87.7 41.5 83.3C41.4 82.9 41.4 82.7 41.4 82.7C41.5 83.7 48.8 96.9 53 84.7C54.5 80.2 53.8 76.7 53.9 74.4C56.1 75.7 58.9 78 58.9 78C61.5 80.5 58.1 93.1 58.1 93.1L52.3 95.4Z" fill="#562D13"/>
<path d="M54.5 74.8C54.1 74.5 53.8 74.4 53.8 74.4C54 74.5 54.2 74.7 54.5 74.8Z" fill="#FFC766"/>
<path d="M53 101.1C53 101.4 53.1 101.7 53.2 102C55.1 105.9 55 114.7 54.8 118.5C54.7 119.9 54.4 122.8 54 126H94.6999C94.4999 124.8 94.3999 123.7 94.1999 122.6C102.4 121.8 110.6 117.4 110.6 117.4C110.6 117.4 104.8 99 102.2 93.4C99.5999 87.8 88.6999 82.8 88.6999 82.8C88.0999 82.5 70.5 78.6 68.9 78.1C68.6 78 68.1 78.1 67.5 78.2C64.2999 78.9 61 78.5 58.0999 76.9C56.7999 76.2 55.6 75.4 54.5 74.8C55.7 75.8 58 78.9 54.8 88.2C50.7 100.4 42.8 86.6 42.8 85.6C42.8 85.6 42.7 88.9 44.5 91.8C45.7 93.8 50.8 98 53 101.1Z" fill="#FFA100"/>
<path d="M42.8 85.7C42.8 86.5 51.3 94 53.1 91.8C51.7 93.5 50.4001 94.3 46.4001 92.8C45.1001 92.3 44.1 91.3 43.5 89.9C42.8 87.9 42.8 85.7 42.8 85.7Z" fill="black"/>
<path d="M95.5 103.7C97 100.5 96.2 97 94.8 93.4C94.8 93.4 99.8 101.1 96.8 105.6C93.5 110.5 95.1 117.3 95.1 121.7C99.8 120.6 107.5 115.3 109.6 114.3C110.2 116.1 110.5 117.3 110.5 117.3C110.5 117.3 105 120.3 98.5 121.8C98.3 121.8 98.1 121.9 97.9 121.9C97.2 122.1 96.5 122.2 95.7 122.3H95.6C95.4 122.3 95.1 122.4 94.9 122.4H94.8C94.6 122.4 94.4 122.5 94.1 122.5C94 122 93.9 121.5 93.9 121C93.9 120.9 93.9 120.8 93.9 120.7C93.8 120.2 93.7 119.7 93.7 119.1C93.6 118.7 93.6 118.2 93.5 117.8C92.6 113.3 93.2 108.5 95.5 103.7Z" fill="#BF7900"/>
<path d="M85.5 68C85.5 68 84.4 78.8 85.2 80.2C85.7 81.1 87.1 82.1 88.7 82.8C89.8 83.3 90.4 84.6 90.1 85.9C89.3 89.1 86.9 94.1 79.6 92.4C71.5 90.5 68.6 86.6 67.8 81.7C67.6 80.5 67.8 78.3 69 78.2C70.1 78.1 73.6 78.3 74.1 77.3C75.6 73.6 74.5 65.9 74.5 65.9L85.5 68Z" fill="#884934"/>
<path d="M97 56.0001L97.6 60.2001C97.7 60.7001 97.7 61.3001 97.5 61.9001L97.1 63.9001C97 64.2001 97 64.5001 97 64.9001V65.6001C97 67.3001 96.7 68.9001 96.1 70.4001L95.2 72.5001C94.9 73.2001 94.6 73.8001 94.2 74.5001L93 76.6001C92.2 78.0001 90.7 78.8001 89.2 78.6001L86 78.1001L85.4 84.1001C84.4 87.1001 81.5 88.9001 78.6 88.4001C75.4 87.9001 73.2 84.7001 73.6 81.2001L75.6 60.7001C75.5 60.7001 85.4 51.3001 97 56.0001Z" fill="#884934"/>
<path opacity="0.4" d="M89.1 68.2C89.1 68.2 88.6 68.3 88.7 68C88.7 67.7 89.8 67.3 90.3 67.1C90.8 66.9 91.3 66.9 91.6 67.3C91.9 67.7 92.6 67.1 93 67.3C93.4 67.4 92.7 68.5 92.3 68.5C91.9 68.6 91.9 68.8 91.4 68.8C90.3 68.6 90.4 68.2 89.1 68.2Z" fill="black"/>
<path d="M89.4 68C89.4 68 90.3 67.3 90.7 67.6C91.4 68 90.5 68.3 89.4 68Z" fill="black"/>
<path d="M91.7 68.3999C91.7 68.3999 92.3 67.7999 92.5 67.8999C92.8 67.8999 92.4 68.4999 91.7 68.3999Z" fill="black"/>
<path d="M74.9 67.0001L75.5 60.9001C75.6 59.8001 74.9 58.9001 73.9 58.8001C72.7 58.7001 71.7 59.6001 71.5 60.9001L71.4 62.4001C71.2 64.7001 72.8 66.8001 74.9 67.0001Z" fill="#884934"/>
<path d="M96.2001 62.4H96.1001C94.8001 61.6 93.2001 62.3 93.2001 62.3C93.1001 62.4 92.9001 62.3 92.9001 62.2C92.8001 62.1 92.9001 61.9 93.0001 61.9C93.1001 61.9 94.7001 61.1 96.2001 61.9L96.6001 61.6C96.7001 61.5 96.9001 61.5 97.0001 61.6C97.1001 61.7 97.1001 61.9 97.0001 62L96.5001 62.4C96.3001 62.4 96.2001 62.4 96.2001 62.4Z" fill="black"/>
<path d="M95.731 62.527C95.7968 62.0343 95.4507 61.5816 94.958 61.5158C94.4654 61.45 94.0126 61.796 93.9468 62.2887C93.881 62.7814 94.227 63.2341 94.7197 63.2999C95.2124 63.3658 95.6651 63.0197 95.731 62.527Z" fill="black"/>
<path opacity="0.4" d="M79.2 73.1C83.3 77.7 87.4 78.4 87.4 78.4L84.7 86.3C83.8 88.6 79.2 73.1 79.2 73.1Z" fill="black"/>
<path d="M83.4 59.4C83.4 59.4 84.5 58.8 85.7 59L89.4 59.8C89.7 59.9 89.9 59.7 90 59.4C90.1 59 89.8 58.7 89.5 58.6L86.2 58C86.2 58 84.1 57.5 83.4 59.4Z" fill="black"/>
<path d="M75.5 60.7C75.5 60.7 85.4 51.4 96.9 56C96.9 56 96.5 54 95.5 52.9C94.5 51.8 82.8 48.8 75.5 60.7Z" fill="#F1606A"/>
<path d="M74 72C73.9 72 73.9 72 73.8 72C72.7 71.8 72.1 70.3 72.4 68.4C72.5 67.7 72.7 67.1 73 66.6C73.1 66.5 73.2 66.5 73.3 66.5C73.4 66.6 73.4 66.7 73.4 66.8C73.1 67.3 73 67.8 72.9 68.4C72.7 70 73.2 71.4 74 71.6C74.2 71.6 74.5 71.6 74.7 71.4C75.3 71 75.8 70 75.9 68.9C76.1 67.3 75.6 65.9 74.8 65.7C74.6 65.7 74.4 65.7 74.2 65.8C74.1 65.9 74 65.8 73.9 65.7C73.8 65.6 73.9 65.5 74 65.4C74.3 65.2 74.5 65.2 74.8 65.2C75.9 65.4 76.5 66.9 76.2 68.8C76 70 75.5 71.1 74.8 71.6C74.6 71.9 74.3 72 74 72Z" fill="#FAA11B"/>
<path d="M98.5 61C98.5 61 97.7 60.3 96.6 60.3L93.4 60.4001C93.2 60.4001 93 60.2 93 60C93 59.7 93.3 59.4001 93.6 59.4001L96.5 59.3C96.5 59.3 98.3 59.3 98.5 61Z" fill="black"/>
<path d="M89.2 62C89.1 62 89.1 62 89 61.9C87.5 60.1 85.3 61.3 85.2 61.4C85.1 61.5 85 61.4 84.9 61.3L84.2 60.5C84.1 60.4 84.1 60.2 84.2 60.1C84.3 60 84.5 60 84.6 60.1L85.1 60.8C85.7 60.5 87.9 59.8 89.3 61.6C89.4 61.7 89.4 61.9 89.3 62C89.3 62 89.3 62 89.2 62Z" fill="black"/>
<path d="M88.3993 61.595C88.463 61.0465 88.1145 60.5552 87.6207 60.4979C87.127 60.4405 86.6751 60.8387 86.6114 61.3873C86.5476 61.9359 86.8962 62.4271 87.3899 62.4845C87.8837 62.5418 88.3356 62.1436 88.3993 61.595Z" fill="black"/>
<path opacity="0.4" d="M72.6 61.5C73.1 59 74.8 60.9 74.8 60.9L73.1 61.4C72.7 63.7 74.2 64.8 74.2 64.8C72.1 64.3 72.6 61.5 72.6 61.5Z" fill="black"/>
<path d="M92.9 71.2001C92.9 71.2001 92.1999 70.3001 91.5999 70.5001C90.9999 70.7001 90.7 70.7001 90.4 70.4001C90 70.1001 89.3999 70.0001 88.5999 70.4001C87.7999 70.8001 86.9 70.1001 87.3 70.7001C87.7 71.3001 88.0999 72.2001 89.0999 72.4001C90.0999 72.6001 91.6999 73.2001 92.5999 71.5001L92.9 71.2001Z" fill="#663727"/>
<path d="M90.8 71.9C89.7 71.9 88.3 71.6 86.8 70.5C86.7 70.4 86.7 70.3 86.7 70.2C86.8 70.1 86.9 70.1 87 70.1C90.3 72.4 92.8 71 92.9 70.9C93 70.8 93.2 70.9 93.2 71C93.3 71.1 93.2 71.3 93.1 71.3C93.2 71.4 92.3 71.9 90.8 71.9Z" fill="#3C2415"/>
<path opacity="0.5" d="M41 39.5L37 55.7C37 55.7 34 66.2 35.1 71C36.2 75.8 42.6 85.8 42.6 85.8C42.6 85.8 35.5 73.3 35.8 67.9C36.1 62.5 41 39.5 41 39.5Z" fill="#562C12"/>
<path d="M89 82.9C89 82.9 98.1 85.8 100.7 90.7C100.7 90.7 102.4 93.9 103.5 96.4L101.5 92.7C100.4 91.1 98.8 89 97.3 87.8C95.1 86.3 92 84.7 89 82.9Z" fill="#FFC766"/>
<path d="M20.9 77.5H4.5C2 77.5 0 75.5 0 73V56.6C0 54.1 2 52.1 4.5 52.1H20.8C23.3 52.1 25.3 54.1 25.3 56.6V73C25.4 75.5 23.4 77.5 20.9 77.5Z" fill="#BF7900"/>
<path d="M16.9 60H18C17.7 59 17 58.3 15.7 58.1C14.2 58.1 13.2 59.2 13.2 60.7C13.2 62.2 14.2 63.3 15.7 63.3C17.1 63.3 18 62.5 18 61V60.6H15.8V61.5H17C17 62.2 16.5 62.5 15.8 62.5C14.9 62.5 14.3 61.8 14.3 60.8C14.3 59.9 14.8 59.2 15.7 59.2C16.4 59.2 16.7 59.5 16.9 60Z" fill="white"/>
<path d="M11.5 63.3V58.4H12.5V63.3H11.5Z" fill="white"/>
<path fill-rule="evenodd" clip-rule="evenodd" d="M10.5 59.8C10.5 60.2 10.3 60.5 10.1 60.8C10.5 61 10.8 61.4 10.8 61.9C10.8 62.8 10.2 63.4 9.10005 63.4H7.30005V58.5H8.90005C9.90005 58.4 10.5 58.9 10.5 59.8ZM8.30005 60.4H8.90005C9.30005 60.4 9.50005 60.2 9.50005 59.9C9.50005 59.5 9.30005 59.3 8.90005 59.3H8.30005V60.4ZM8.30005 62.4H9.10005C9.50005 62.4 9.80005 62.2 9.80005 61.8C9.80005 61.4 9.50005 61.2 9.10005 61.2H8.30005V62.4Z" fill="white"/>
<path d="M8.10003 68H7.10002C6.90002 67.5 6.60002 67.2 5.90002 67.2C5.00002 67.2 4.40002 67.9 4.40002 68.8C4.40002 69.8 5.00002 70.5 5.90002 70.5C6.60002 70.5 7.00002 70.2 7.20002 69.7H8.20002C7.90002 70.8 7.20002 71.4 5.90002 71.4C4.40002 71.4 3.40002 70.3 3.40002 68.8C3.40002 67.3 4.40002 66.2 5.90002 66.2C7.10002 66.3 7.90002 67 8.10003 68Z" fill="white"/>
<path fill-rule="evenodd" clip-rule="evenodd" d="M11.1 71.5C12.6 71.5 13.7 70.4 13.7 68.9C13.7 67.4 12.6 66.3 11.1 66.3C9.6 66.3 8.5 67.4 8.5 68.9C8.5 70.4 9.6 71.5 11.1 71.5ZM11.2 70.6C10.2 70.6 9.6 69.9 9.6 68.9C9.6 67.9 10.2 67.2 11.2 67.3C12.2 67.3 12.8 67.9 12.8 68.9C12.8 69.9 12.1 70.6 11.2 70.6Z" fill="white"/>
<path fill-rule="evenodd" clip-rule="evenodd" d="M16.8 71.3L15.8 69.4H15.4V71.3H14.4V66.4H16C17.1 66.4 17.7 67 17.7 68C17.7 68.6 17.4 69.1 16.8 69.3L17.9 71.3H16.8ZM15.5 68.6H16C16.5 68.6 16.8 68.4 16.8 67.9C16.8 67.5 16.5 67.2 16 67.2H15.5V68.6Z" fill="white"/>
<path fill-rule="evenodd" clip-rule="evenodd" d="M20.1 69.6C21.1 69.6 21.8 68.9 21.8 68C21.8 67 21.2 66.4 20.1 66.5H18.5V71.4H19.5V69.6H20.1ZM20.1 68.7H19.5V67.3H20.1C20.5 67.3 20.8 67.6 20.8 68C20.8 68.5 20.6 68.7 20.1 68.7Z" fill="white"/>
<path d="M240.7 12.7H353.9C359.3 12.7 363.6 17.1 363.6 22.4V116.3C363.6 121.7 359.2 126 353.9 126H349.6C348.2 126 347 127.2 347 128.6V144.3C347 146.2 344.7 147.1 343.4 145.8L325.5 128C324.3 126.8 322.6 126.1 320.8 126.1H240.7C235.3 126.1 231 121.7 231 116.4V22.4C230.9 17 235.3 12.7 240.7 12.7Z" fill="#4CBF9D"/>
<path d="M270 25.4H253.7C251.2 25.4 249.2 23.4 249.2 20.9V4.5C249.2 2 251.2 0 253.7 0H270C272.5 0 274.5 2 274.5 4.5V20.8C274.5 23.4 272.5 25.4 270 25.4Z" fill="#398F76"/>
<path d="M257.2 8.8H256.1C255.9 8.3 255.6 8 254.9 8C254 8 253.4 8.7 253.4 9.6C253.4 10.6 254 11.3 254.9 11.3C255.6 11.3 256 11 256.2 10.5H257.2C256.9 11.6 256.2 12.2 254.9 12.2C253.4 12.2 252.4 11.1 252.4 9.6C252.4 8.1 253.4 7 254.9 7C256.2 7.1 256.9 7.8 257.2 8.8Z" fill="white"/>
<path d="M259 12.1V10.3L257.1 7.20001H258.2L259.3 8.90001L259.5 9.20001L259.7 8.90001L260.8 7.20001H261.9L260 10.3V12.1H259Z" fill="white"/>
<path fill-rule="evenodd" clip-rule="evenodd" d="M264.6 11L265 12.1H266.1L264.2 7.20001H263.1L261.2 12.1H262.2L262.6 11H264.6ZM264.3 10.2H262.9L263.5 8.60001L263.6 8.30001L263.7 8.60001L264.3 10.2Z" fill="white"/>
<path d="M269.8 12.1L267.6 8.80001V12.1H266.6V7.20001H267.6L269.8 10.5V7.20001H270.8V12.1H269.8Z" fill="white"/>
<path d="M259.1 20.1V19.2H257.1V15.2H256.1V20.1H259.1Z" fill="white"/>
<path d="M261 16.1V20.1H260V16.1H258.4V15.2H262.6V16.1H261Z" fill="white"/>
<path fill-rule="evenodd" clip-rule="evenodd" d="M265 20.1C266.6 20.1 267.6 19.1 267.6 17.6C267.6 16.2 266.6 15.2 265 15.2H263.2V20.1H265ZM265.1 19.2H264.2V16H265.1C266.1 16 266.7 16.6 266.7 17.6C266.7 18.6 266.1 19.2 265.1 19.2Z" fill="white"/>
<path d="M132.5 66.3H245.7C251.1 66.3 255.4 70.7 255.4 76V169.9C255.4 175.3 251 179.6 245.7 179.6H241.4C240 179.6 238.8 180.8 238.8 182.2V198C238.8 199.9 236.5 200.8 235.2 199.5L217.4 181.7C216.2 180.5 214.5 179.8 212.7 179.8H132.6C127.2 179.8 122.9 175.4 122.9 170.1V76C122.8 70.6 127.2 66.3 132.5 66.3Z" fill="#FFC1C7"/>
<path d="M132.5 66.3C127.1 66.3 122.8 70.7 122.8 76V125.9H134.6C140 125.9 144.3 121.5 144.3 116.2V66.3H132.5Z" fill="#C76C61"/>
<path d="M245.8 66.3H231V116.4C231 121.8 235.4 126.1 240.7 126.1H255.5V76C255.5 70.6 251.1 66.3 245.8 66.3Z" fill="#185F34"/>
<path d="M216.3 177.7L215.7 173.3L214.5 164.9C214.5 164.9 226.4 170.3 227.3 157.9L224.1 126.3C223.3 119.8 218.9 114.3 212.8 112.1L195.7 105.6L191.5 105.7L186.2 108.7C182.6 109.1 178.1 109.2 174.8 110.5C174.5 110.6 174.4 110.7 174.3 110.7C174.2 110.8 174 110.8 173.9 111C165.4 116.1 161.8 139.3 160.8 145C160.7 145.6 160.1 145.9 159.5 145.7C156.7 144.5 158.6 146 153.7 143.3C153.6 146.8 150.4 152.4 148 154.4C155.1 159.6 163 164.3 167.4 163.4C168.5 163.2 169.4 162.3 170.3 160.9C170.4 162.8 170.4 164.1 170.5 164.7C170.5 164.9 170.5 165.2 170.5 165.4L170.4 170.1C170.4 170.6 170.3 171.1 170.3 171.7L169 180.3L216.9 181.2L216.3 177.7Z" fill="#FFB1B9"/>
<path d="M177.4 125.7L173.8 146.9L175.6 146.8L177.4 125.7Z" fill="#E66C79"/>
<path d="M227.2 157.8L226.1 146.6C226.1 146.6 226.8 156.9 224.7 159.8C222.6 162.6 218.9 164.5 208.7 163.1L214.5 165.2V164.9C214.4 164.8 226.3 170.2 227.2 157.8Z" fill="#BF858B"/>
<path d="M213.5 151.1L208.7 127.7L212.1 151.6H218.4L213.5 151.1Z" fill="#E66C79"/>
<path d="M160 145.4L163.9 146.7L160.6 145C160.5 145 160.3 145.4 160 145.4Z" fill="#C76C61"/>
<path d="M183.5 108.8L177.9 110.5C177.9 110.5 171 112.8 169 118.8C167 124.8 160.6 145.1 160.6 145.1C160.6 145.1 163.4 127 168.3 117.5C173.2 107.9 177.5 110.1 183.5 108.8Z" fill="#FFD0D5"/>
<path d="M174.5 152.6L173 151.8C171.4 156.2 171.4 158.3 170.3 160.4C170.3 161.9 170.4 162.4 170.4 162.4C170.4 162.4 172.6 158.2 174.5 152.6Z" fill="#E66C79"/>
<path d="M154.3 135.3C155.5 136 156 137.8 156.3 138.7C157.9 144.8 163.7 167.6 165.3 173.8C165.5 174.5 164.7 175.1 164 174.8L141.7 161.8C140.1 160.9 139.4 159 139.1 158C137.3 151.4 132.1 131.6 129.9 123.1C129.7 122.2 130.6 121.5 131.5 121.9L154.3 135.3Z" fill="white"/>
<path d="M190.1 92.9L187.9 107.8C188.3 110.4 191 116.3 192.1 119.4C192.4 119.4 193.5 119.5 193.7 119.6C196.3 116.6 202.8 110.3 203.1 108.6L203.4 93.5L190.1 92.9Z" fill="#CE9D77"/>
<path d="M187.3 156.8L214.6 165.7L214.4 164.8L190.3 157.3L187.3 156.8Z" fill="#E66C79"/>
<path d="M209.6 86.3C209.4 93.9 203.1 99.9 195.5 99.7C187.9 99.5 183.8 93.4 184 85.7C184.2 79 187.9 72 197.1 72.6C207 73.3 209.8 78.6 209.6 86.3Z" fill="black"/>
<path d="M203.1 89.7V88.4L201.9 87.4C201.5 87.1 201.3 86.7 201.3 86.2L201.2 83.2C201.2 82.6 200.7 82.1 200.1 82.1L185.4 82L184 85.7C183.8 86.2 183.7 86.8 183.8 87.3L183.9 89.2C183.9 89.6 183.9 89.9 183.8 90.2L183.7 90.9C183.4 92.5 183.4 94.1 183.8 95.7L184.4 97.9C184.6 98.6 184.8 99.3 185.1 100L186 102.2C186.6 103.7 187.1 103.9 188 104.5V105.8C187.9 109.8 190.9 113.3 194.9 113.6C198.8 113.8 202.2 111 202.7 107.2L204.5 94.4L203.1 89.7Z" fill="#CE9D77"/>
<path opacity="0.4" d="M191.1 95.8C191.1 95.8 191.6 95.9 191.7 95.7C191.8 95.4 190.8 95 190.3 94.7C189.8 94.4 189.3 94.3 188.6 94.7C187.9 95.1 187.5 94.4 187 94.4C186.5 94.4 186.6 95.5 187 95.6C187.4 95.7 187.3 96 187.9 96C189.4 96 189.5 95.6 191.1 95.8Z" fill="black"/>
<path d="M190.8 95.6C190.8 95.6 190.2 94.9 189.5 95C188.5 95.3 189.3 95.7 190.8 95.6Z" fill="black"/>
<path d="M187.9 95.6C187.9 95.6 187.6 95 187.2 95C186.9 94.9 187 95.5 187.9 95.6Z" fill="black"/>
<path d="M203.762 96.6517L204.361 89.6552C205.759 89.7551 207.257 90.9545 207.157 92.3538L206.558 94.3528C206.458 95.6522 205.16 96.7516 203.762 96.6517Z" fill="#CE9D77"/>
<path d="M198.072 86.857L197.672 86.557C197.273 86.257 196.674 86.157 196.175 86.157L191.383 86.557C191.183 86.557 190.983 86.857 191.183 87.057L191.483 87.557C191.682 87.857 192.082 88.057 192.581 88.057L196.574 87.657C196.674 87.657 197.373 87.557 197.872 87.557C198.271 87.557 198.471 87.057 198.072 86.857Z" fill="black"/>
<path d="M183.795 86.4568L184.295 86.057C184.394 85.957 184.594 85.957 184.694 85.957L188.188 86.6567C188.388 86.6567 188.388 86.9565 188.288 87.1564L187.988 87.5562C187.789 87.8561 187.489 87.956 187.29 87.956L184.594 87.4563C184.494 87.4563 184.195 87.3563 183.895 87.3563C183.596 87.1564 183.496 86.7566 183.795 86.4568Z" fill="black"/>
<path opacity="0.4" d="M198.871 100.55C197.373 101.449 194.977 102.949 193.28 103.748C190.684 104.948 187.689 104.648 187.689 104.648V105.947C187.689 107.846 188.288 109.745 189.486 111.144C197.373 108.146 200.168 101.849 200.168 101.849L201.267 98.8506L198.871 100.55Z" fill="black"/>
<path opacity="0.4" d="M206.159 92.4538C206.258 89.7551 204.362 91.3543 204.362 91.3543L205.759 92.1539C205.659 94.5527 204.062 95.4523 204.062 95.4523C206.059 95.3524 206.159 92.4538 206.159 92.4538Z" fill="black"/>
<path d="M186.691 98.451C186.691 98.451 186.691 98.051 187.389 98.051C187.789 98.051 187.988 98.451 188.887 98.151C190.784 97.451 191.682 98.551 191.682 98.551C191.882 98.951 191.383 99.351 191.283 99.451C190.684 99.751 189.486 99.951 188.388 99.851C187.29 99.751 186.591 98.951 186.691 98.451Z" fill="#7C5E47"/>
<path d="M189.087 99.0509C188.088 99.0509 187.09 98.9509 186.191 98.4509C186.092 98.4509 186.092 98.3509 186.092 98.2509C186.092 98.1509 186.191 98.1509 186.291 98.1509C188.288 99.3509 191.882 98.3509 191.982 98.3509C192.082 98.3509 192.182 98.3509 192.182 98.4509C192.182 98.5509 192.182 98.6509 192.082 98.6509C191.982 98.6509 190.584 99.0509 189.087 99.0509Z" fill="#3E2F24"/>
<path d="M187.39 90.6557C187.29 90.6557 187.19 90.5557 187.09 90.4557C186.791 89.8557 186.391 89.5557 185.992 89.4557C185.293 89.3557 184.794 90.0557 184.794 90.0557C184.694 90.1557 184.494 90.1557 184.394 90.0557C184.295 89.9557 184.295 89.7557 184.394 89.6557C184.394 89.6557 185.193 88.7557 186.092 88.8557C186.691 88.9557 187.19 89.3557 187.689 90.1557C187.789 90.2557 187.689 90.4557 187.589 90.5557C187.489 90.6557 187.489 90.6557 187.39 90.6557Z" fill="black"/>
<path d="M185.892 90.8553C186.278 90.8553 186.591 90.5419 186.591 90.1553C186.591 89.7687 186.278 89.4553 185.892 89.4553C185.506 89.4553 185.193 89.7687 185.193 90.1553C185.193 90.5419 185.506 90.8553 185.892 90.8553Z" fill="black"/>
<path d="M192.381 90.7555H192.281C192.181 90.6555 192.082 90.4555 192.181 90.3555C192.581 89.6555 193.08 89.2555 193.679 89.1555C194.777 89.0555 195.776 90.0555 195.875 90.0555C195.975 90.1555 195.975 90.3555 195.875 90.4555C195.776 90.5555 195.576 90.5555 195.476 90.4555C195.476 90.4555 194.677 89.5555 193.879 89.7555C193.479 89.8555 193.08 90.1555 192.88 90.6555C192.581 90.7555 192.481 90.7555 192.381 90.7555Z" fill="black"/>
<path d="M193.779 91.0553C194.22 91.0553 194.578 90.6972 194.578 90.2553C194.578 89.8135 194.22 89.4553 193.779 89.4553C193.338 89.4553 192.98 89.8135 192.98 90.2553C192.98 90.6972 193.338 91.0553 193.779 91.0553Z" fill="black"/>
<path d="M187.689 105.947L183.196 108.746C182.797 112.244 185.393 115.642 185.393 115.642L190.584 110.445C186.89 107.746 187.689 105.947 187.689 105.947Z" fill="white"/>
<path d="M187.389 113.643C187.389 118.441 191.882 119.24 191.882 119.24L190.684 110.345L187.389 113.643Z" fill="white"/>
<path d="M197.772 110.945L201.466 116.342C201.466 116.342 203.862 113.144 205.659 109.146L202.864 104.848C202.864 104.948 201.167 109.645 197.772 110.945Z" fill="white"/>
<path d="M193.38 119.44C193.38 119.44 196.774 118.841 197.772 118.041C200.468 115.942 200.568 114.942 200.568 114.942L197.772 111.044L193.38 119.44Z" fill="white"/>
<path d="M184.195 145.827C180.8 144.728 178.903 146.627 178.903 146.627L168.221 147.526C167.522 147.526 167.023 148.226 167.123 148.826C167.223 149.425 167.722 149.825 168.321 149.825L171.715 149.925C171.316 150.625 171.416 151.524 171.915 152.124L172.314 152.624C172.115 153.123 172.214 153.323 172.314 153.623C172.414 153.923 172.714 154.223 173.412 154.523C173.912 154.723 174.211 155.222 174.71 155.422L178.704 157.022C180.101 157.621 181.599 157.721 182.997 157.521L185.792 157.121C185.792 157.121 186.491 156.922 187.09 156.622L190.085 157.121L190.884 150.325L184.195 145.827Z" fill="#CE9D77"/>
<path d="M167.023 148.925C167.123 148.426 167.522 147.926 168.121 147.926L178.804 147.026C178.804 147.026 180.7 145.027 184.095 146.227L190.584 150.825V150.525L184.095 145.927C180.7 144.828 178.804 146.727 178.804 146.727L168.121 147.626C167.422 147.526 166.923 148.126 167.023 148.925C167.023 148.826 167.023 148.826 167.023 148.925Z" fill="#E2C4AD"/>
<path d="M171.615 149.925L177.606 149.625L171.516 150.125L171.615 149.925Z" fill="#8B5831"/>
<path d="M172.314 152.624L177.106 152.424L172.214 152.824L172.314 152.624Z" fill="#8B5831"/>
<path d="M173.512 154.723L178.304 154.523L173.712 154.923L173.512 154.723Z" fill="#8B5831"/>
<path d="M178.903 146.627L181 146.427L179.003 146.527L178.903 146.627Z" fill="#8B5831"/>
<path d="M172.015 149.925C172.015 149.925 171.116 150.925 172.314 152.624C172.314 152.624 170.817 151.324 171.615 149.925H172.015Z" fill="#E2C4AD"/>
<path d="M190.784 150.425L211.749 151.525L190.684 150.725L190.784 150.425Z" fill="#FFD0D5"/>
<path d="M136.473 138.231C137.372 137.531 137.671 136.732 137.472 136.232C137.272 135.732 136.573 135.532 135.775 135.932C138.071 134.533 137.172 132.234 135.175 133.333C136.473 132.434 135.775 130.735 133.778 131.734C135.275 130.735 134.477 129.435 132.68 130.235L131.182 130.935C130.284 131.434 129.385 132.634 130.284 133.633C129.585 134.133 130.084 136.232 130.583 136.132C130.084 136.832 130.383 138.431 131.182 138.531C130.982 138.931 130.883 139.33 131.082 139.73C131.282 140.53 132.18 141.229 133.578 141.629L134.676 141.929L134.477 139.43L136.473 138.231Z" fill="#CE9D77"/>
<path d="M135.675 136.532C137.072 135.932 137.472 136.332 137.472 136.332C137.272 135.832 136.573 135.632 135.775 136.032C131.581 137.931 131.182 138.731 131.182 138.731C130.982 139.13 130.883 139.53 131.082 139.93C130.982 139.93 129.984 138.931 135.675 136.532Z" fill="#E2C4AD"/>
<path d="M135.275 133.833C136.673 133.233 137.072 133.633 137.072 133.633C136.873 133.133 136.174 132.933 135.375 133.333C131.182 135.232 130.783 136.032 130.783 136.032C130.583 136.432 130.284 136.432 130.383 137.531C130.383 137.531 130.383 135.832 135.275 133.833Z" fill="#E2C4AD"/>
<path d="M134.177 132.134C135.375 131.734 135.775 132.034 135.775 132.034C135.575 131.534 134.976 131.334 134.277 131.634C130.683 133.033 130.284 133.733 130.284 133.733C130.084 134.033 129.784 134.033 129.984 135.032C129.984 135.032 129.884 133.633 134.177 132.134Z" fill="#E2C4AD"/>
<path d="M133.179 130.435C134.177 130.135 134.477 130.435 134.477 130.435C134.277 130.035 133.778 129.835 133.179 130.035C130.683 130.735 130.284 131.434 130.284 131.434C130.184 131.534 129.685 132.134 129.884 132.834C129.884 133.033 129.784 131.434 133.179 130.435Z" fill="#E2C4AD"/>
<path d="M134.377 139.73L133.279 140.53C133.279 140.53 134.377 139.93 134.377 140.23V139.73Z" fill="#9B7659"/>
<path d="M134.577 130.735C134.577 130.735 133.279 132.134 131.681 132.834L133.778 131.934C133.778 131.834 134.577 131.334 134.577 130.735Z" fill="#9B7659"/>
<path d="M135.775 132.034C135.775 132.034 135.475 133.234 134.477 133.734L135.275 133.434C135.176 133.434 136.074 132.934 135.775 132.034Z" fill="#9B7659"/>
<path d="M137.072 133.633C137.072 133.633 137.072 134.833 135.575 136.132C135.475 136.132 137.671 135.132 137.072 133.633Z" fill="#9B7659"/>
<path d="M137.472 136.332C137.472 136.332 137.671 137.331 134.477 139.73C134.377 139.73 138.071 137.931 137.472 136.332Z" fill="#9B7659"/>
<path d="M137.172 137.531C137.172 137.531 136.873 139.03 134.377 140.13V139.63C134.377 139.73 136.374 138.731 137.172 137.531Z" fill="black"/>
<path d="M187.389 113.643L190.684 110.445L187.489 114.643C187.39 114.643 187.29 114.343 187.389 113.643Z" fill="#CCCCCC"/>
<path d="M200.568 115.043L197.772 110.945L200.268 115.542C200.368 115.542 200.568 115.442 200.568 115.043Z" fill="#CCCCCC"/>
<path d="M205.659 109.146L212.348 111.844C212.348 111.844 222.032 114.843 223.63 126.037C223.63 126.037 220.535 116.242 213.147 112.844C211.649 112.144 205.659 109.146 205.659 109.146Z" fill="#FFD0D5"/>
<path d="M262.566 162.819H246.292C243.797 162.819 241.8 160.82 241.8 158.321V141.929C241.8 139.43 243.797 137.431 246.292 137.431H262.566C265.061 137.431 267.058 139.43 267.058 141.929V158.221C267.058 160.82 265.061 162.819 262.566 162.819Z" fill="#E66C79"/>
<path d="M254.08 146.227H252.981C252.782 145.727 252.482 145.427 251.783 145.427C250.885 145.427 250.286 146.127 250.286 147.026C250.286 148.026 250.885 148.726 251.783 148.726C252.482 148.726 252.881 148.426 253.081 147.926H254.08C253.78 149.025 253.081 149.625 251.783 149.625C250.286 149.625 249.287 148.526 249.287 147.026C249.287 145.527 250.286 144.428 251.783 144.428C253.081 144.528 253.78 145.227 254.08 146.227Z" fill="white"/>
<path fill-rule="evenodd" clip-rule="evenodd" d="M248.289 149.525L247.89 148.426H245.893L245.494 149.525H244.495L246.392 144.628H247.49L249.387 149.525H248.289ZM247.59 147.626L246.991 146.027L246.891 145.727L246.792 146.027L246.193 147.626H247.59Z" fill="white"/>
<path d="M259.071 146.427V149.525H260.07V144.628H258.972L257.574 147.826L257.474 148.126L257.374 147.826L255.976 144.628H254.878V149.525H255.877V146.427L255.976 146.827L257.075 149.525H257.873L258.972 146.827L259.071 146.427Z" fill="white"/>
<path d="M261.967 146.527H263.564V147.426H261.967V148.626H263.863V149.525H261.068V144.628H263.863V145.527H261.967V146.527Z" fill="white"/>
<path d="M248.589 152.624V157.521H249.587V152.624H248.589Z" fill="white"/>
<path d="M253.78 157.521L251.584 154.223V157.521H250.585V152.624H251.584L253.78 155.922V152.624H254.778V157.521H253.78Z" fill="white"/>
<path d="M259.071 154.223H260.17C259.87 153.223 259.171 152.524 257.873 152.424C256.376 152.424 255.377 153.523 255.377 155.022C255.377 156.522 256.376 157.621 257.873 157.621C259.171 157.621 259.87 157.021 260.17 155.922H259.171C258.972 156.422 258.572 156.722 257.873 156.722C256.975 156.722 256.376 156.022 256.376 155.022C256.376 154.123 256.975 153.423 257.873 153.423C258.572 153.423 258.872 153.723 259.071 154.223Z" fill="white"/>
<path d="M329.755 40.1799C327.958 39.0804 333.049 33.6831 327.459 30.5847C320.87 26.8865 325.362 24.3878 320.969 22.0889C318.074 20.5897 315.778 21.5892 314.48 22.2888C312.383 21.1894 309.488 20.2898 306.992 21.7891C305.994 22.3888 305.295 22.9885 304.696 23.6881C302.799 23.6881 301.002 24.7876 300.303 26.6866C299.904 27.7861 299.904 28.8855 300.303 29.885C300.204 29.885 300.104 29.985 300.004 29.985C296.31 31.6841 300.703 34.6826 298.107 36.6816C295.312 38.8805 299.704 39.6801 297.009 43.2783C295.711 44.9775 295.511 48.5757 297.408 50.8745C296.609 51.5742 296.01 52.6736 296.01 53.873C296.01 56.1719 297.808 57.971 300.104 57.971C300.503 57.971 300.902 57.871 301.202 57.7711C303.498 60.0699 307.292 61.4692 311.685 61.4692C316.577 61.4692 320.77 59.6701 322.866 56.8715C323.565 57.4712 324.464 57.871 325.462 57.871C327.658 57.871 329.356 56.0719 329.356 53.973C329.356 53.3733 329.256 52.8735 328.956 52.3738C329.855 51.5742 330.454 50.4747 330.454 49.1754C330.454 48.3758 330.354 47.5762 329.955 46.8765C331.851 45.5772 331.752 41.3793 329.755 40.1799Z" fill="black"/>
<path d="M338.241 125.437L338.84 133.333C339.04 135.632 337.542 137.431 335.445 138.531L332.85 135.932L333.449 125.437H338.241Z" fill="#C76C61"/>
<path d="M340.138 68.4658L347.825 92.3539C348.224 93.6532 348.224 95.0525 348.025 96.3519L338.94 125.437H331.352L336.943 95.8521C337.043 95.0525 337.043 94.2529 336.743 93.5533L332.65 82.8586L327.858 97.0515C327.259 98.8506 327.359 100.85 328.158 102.649L329.056 104.748L297.308 105.747L296.61 103.348C298.706 101.249 299.405 97.9511 298.407 95.1525L295.112 86.4568C295.112 86.4568 293.015 83.6582 293.015 77.7612L289.821 86.9566C289.122 88.4558 287.524 90.055 286.227 91.0545L273.448 100.15C271.95 102.049 268.955 93.5533 268.955 93.5533L281.035 83.6582L286.227 64.5678C287.824 59.5703 291.817 55.6722 296.909 54.3729C299.006 53.8731 301.102 53.5733 302.699 53.6732C302.699 53.6732 322.866 53.8731 323.266 53.9731C329.056 54.5728 337.442 55.4723 340.138 68.4658Z" fill="#94D9C4"/>
<path d="M332.65 82.8585L331.352 69.865C331.352 69.865 332.65 82.2588 326.86 89.6551C321.468 96.4517 326.061 104.947 326.061 104.947L329.156 104.847L328.257 102.749C327.459 100.949 327.359 98.9504 327.958 97.1513L332.65 82.8585Z" fill="#59896E"/>
<path d="M289.821 87.0565C289.821 87.0565 291.118 76.062 295.711 62.6687C295.711 62.6687 293.015 72.064 292.915 78.061L289.821 87.0565Z" fill="#59896E"/>
<path d="M304.097 56.6717C304.996 61.1694 309.089 64.4678 313.681 64.4678H313.881C319.072 64.3678 323.265 60.2699 323.465 55.0725L323.565 53.973C322.367 53.6732 321.169 53.4733 319.971 53.4733H312.982H305.894C305.195 53.4733 304.496 53.5732 303.698 53.6732L304.097 56.6717Z" fill="white"/>
<path d="M306.194 56.2719C306.892 59.7701 309.987 62.2689 313.581 62.2689H313.781C317.775 62.1689 321.069 58.9705 321.169 54.9725L321.269 53.6732C320.77 53.6732 320.27 53.5732 319.771 53.5732H312.783H305.694L306.194 56.2719Z" fill="#C76C61"/>
<path d="M318.673 55.0725C318.573 57.7712 316.377 59.8701 313.781 59.9701C311.385 59.9701 309.189 58.3709 308.789 55.9721L307.891 51.5743L306.393 51.4743C305.195 51.3744 303.997 50.6747 303.498 49.4753L302.799 47.7762C302.6 47.2764 302.4 46.6767 302.2 46.177L301.701 44.4778C301.402 43.2784 301.302 41.9791 301.501 40.7797L301.601 40.18C301.601 39.8801 301.701 39.6802 301.601 39.3804L301.501 37.8811C301.501 37.4813 301.501 36.9816 301.601 36.5818L302.6 33.4833C308.29 33.3834 311.185 29.2854 311.185 29.2854C310.986 30.5848 311.385 32.4838 313.981 33.8831C318.773 36.4818 315.179 38.7807 319.472 39.4803L318.673 55.0725Z" fill="#C76C61"/>
<path opacity="0.4" d="M307.591 43.4788C307.591 43.4788 307.991 43.5788 307.991 43.3788C307.991 43.1788 307.192 42.7788 306.793 42.5788C306.393 42.3788 305.994 42.2788 305.695 42.5788C305.395 42.8788 304.896 42.3788 304.596 42.3788C304.297 42.4788 304.696 43.2788 304.996 43.3788C305.295 43.4788 305.295 43.6788 305.695 43.6788C306.493 43.6788 306.493 43.4788 307.591 43.4788Z" fill="black"/>
<path d="M307.292 43.3786C307.292 43.3786 306.693 42.7786 306.293 42.8786C305.694 43.1786 306.393 43.4786 307.292 43.3786Z" fill="black"/>
<path d="M305.395 43.3785C305.395 43.3785 304.996 42.8785 304.796 42.8785C304.596 42.8785 304.896 43.3785 305.395 43.3785Z" fill="black"/>
<path d="M319.172 44.1779L319.472 39.4803C319.472 38.6807 320.27 37.981 321.069 38.081C322.067 38.1809 322.766 38.9805 322.766 39.98L322.666 41.1794C322.567 42.8786 320.969 44.2779 319.172 44.1779Z" fill="#C76C61"/>
<path d="M312.783 38.4812C311.984 38.4812 311.185 38.3812 310.487 38.2812C310.087 38.2812 309.688 38.1812 309.388 38.1812C308.989 38.1812 308.69 38.1812 308.29 38.3812C308.49 37.9812 308.989 37.8812 309.388 37.7812C309.788 37.6812 310.187 37.6812 310.586 37.6812C310.986 37.6812 311.385 37.7812 311.784 37.8812C312.084 38.1812 312.483 38.2812 312.783 38.4812Z" fill="black"/>
<path d="M310.187 39.3811C310.628 39.3811 310.986 39.023 310.986 38.5811C310.986 38.1393 310.628 37.7811 310.187 37.7811C309.746 37.7811 309.388 38.1393 309.388 38.5811C309.388 39.023 309.746 39.3811 310.187 39.3811Z" fill="black"/>
<path d="M304.996 38.3812C304.696 38.3812 304.397 38.3812 304.197 38.3812C303.897 38.3812 303.698 38.3812 303.398 38.2812C303.099 38.2812 302.899 38.1812 302.6 38.1812C302.3 38.0812 302.1 38.0812 301.801 37.9812C302.3 37.6812 302.899 37.5812 303.498 37.6812C303.798 37.6812 304.097 37.7812 304.297 37.8812C304.496 37.9812 304.696 38.1812 304.996 38.3812Z" fill="black"/>
<path d="M303.298 39.1811C303.684 39.1811 303.997 38.8677 303.997 38.4811C303.997 38.0945 303.684 37.7811 303.298 37.7811C302.912 37.7811 302.6 38.0945 302.6 38.4811C302.6 38.8677 302.912 39.1811 303.298 39.1811Z" fill="black"/>
<path opacity="0.4" d="M314.979 48.3757C311.086 51.3742 307.691 51.4742 307.691 51.4742L308.989 57.771C309.388 59.5701 314.979 48.3757 314.979 48.3757Z" fill="black"/>
<path d="M307.591 36.9819C307.492 36.6819 307.691 36.3819 307.991 36.3819C308.39 36.2819 308.789 36.2819 309.189 36.1819L309.987 36.0819C310.287 36.0819 310.487 35.9819 310.886 35.9819C311.485 35.9819 312.184 36.1819 312.683 36.4819C313.182 36.7819 313.681 37.0819 314.081 37.4819C313.482 37.3819 312.982 37.0819 312.483 36.8819C311.984 36.5819 311.485 36.5819 310.986 36.5819C310.886 36.5819 310.786 36.5819 310.586 36.6819L310.187 36.7819L309.388 36.9819C308.989 37.0819 308.49 37.1819 308.091 37.2819C307.791 37.2819 307.591 37.1819 307.591 36.9819Z" fill="black"/>
<path d="M305.195 37.1821C305.395 37.2821 305.595 36.9821 305.395 36.8821C304.696 36.0821 303.498 35.7821 302.699 35.7821C302.2 35.7821 301.601 36.0821 301.202 36.3821C301.102 36.4821 301.202 36.6821 301.302 36.5821C301.801 36.4821 302.3 36.3821 302.799 36.3821C303.298 36.3821 304.397 36.8821 305.195 37.1821Z" fill="black"/>
<path opacity="0.4" d="M321.668 40.3798C321.568 38.2809 319.971 39.6802 319.971 39.6802L321.269 40.2799C321.369 42.079 319.971 42.8786 319.971 42.8786C321.768 42.6787 321.668 40.3798 321.668 40.3798Z" fill="black"/>
<path d="M304.397 45.877C304.397 45.877 304.896 45.2773 305.395 45.3773C305.894 45.4772 305.694 45.7771 306.393 45.3773C307.092 44.9775 307.691 45.7771 308.39 45.877C309.089 45.977 308.29 46.4767 307.991 46.7766C307.591 47.1764 306.992 47.3763 306.194 47.3763C304.796 47.3763 304.596 46.2768 304.596 46.2768C304.596 46.2768 304.297 46.4767 304.397 45.877Z" fill="#921D21"/>
<path d="M305.894 46.6769C305.195 46.6769 304.596 46.5769 304.197 46.2769L304.297 46.1769C305.595 47.1769 308.789 46.0769 308.789 46.0769V46.1769C308.789 46.1769 307.292 46.6769 305.894 46.6769Z" fill="#450709"/>
<path d="M336.643 93.5532C336.943 94.2529 337.043 95.0525 336.843 95.8521L331.252 125.437C331.252 125.437 337.542 99.7501 337.841 98.3508C338.241 96.9515 336.643 93.5532 336.643 93.5532Z" fill="#59896E"/>
<path d="M332.251 78.9604L337.043 90.5547C338.041 92.9535 338.341 95.5522 337.941 98.1509V98.4507L332.65 82.9585L332.251 78.9604Z" fill="#59896E"/>
<path d="M323.365 54.073C323.365 54.073 336.643 53.5732 339.539 66.2669L341.236 72.064L338.54 65.5672C338.64 65.4673 336.643 55.3723 323.365 54.073Z" fill="#B7D8C5"/>
<path d="M303.498 53.7731C303.498 53.7731 290.22 52.6737 286.626 63.7681C286.526 63.7681 289.821 54.4728 303.498 53.7731Z" fill="#B7D8C5"/>
<path d="M336.144 126.237C336.344 122.739 335.645 119.24 334.247 116.042L329.056 104.348H296.01L292.816 113.044C291.318 117.241 290.12 121.539 289.122 125.937H320.171C321.968 125.937 323.565 126.637 324.863 127.836L337.841 140.83L336.144 126.237Z" fill="black"/>
<path d="M273.747 116.042L249.387 102.449L269.953 87.0564L301.002 103.648V105.347L279.238 116.142C277.541 117.041 275.444 117.041 273.747 116.042Z" fill="#6D6E70"/>
<path d="M274.047 116.542L246.891 101.449L269.255 85.8571L300.902 103.648L274.047 116.542Z" fill="#D0D2D3"/>
<path d="M270.552 90.3547L288.423 99.4502L280.935 102.349L264.462 94.1528L270.552 90.3547Z" fill="#6D6E70"/>
<path d="M246.792 75.5622L259.171 82.3588C259.77 82.6587 259.471 82.5587 272.349 89.4553C272.849 89.7551 273.248 90.2549 273.348 90.8546L276.642 115.042C276.842 116.242 275.644 117.041 274.546 116.442L248.888 102.549C248.389 102.249 247.99 101.749 247.89 101.149L244.595 76.9615C244.495 75.7621 245.693 74.9625 246.792 75.5622Z" fill="#B3B3B3"/>
<path d="M245.693 75.8621L258.073 82.6587L271.251 89.7552C271.75 90.055 272.15 90.5548 272.25 91.1545L275.544 115.342C275.744 116.542 274.546 117.341 273.448 116.742L247.79 102.849C247.291 102.549 246.891 102.049 246.792 101.449L243.597 77.2614C243.397 76.062 244.595 75.2624 245.693 75.8621Z" fill="#F2F2F2"/>
<path d="M257.174 105.647C257.174 104.648 256.775 104.148 256.376 104.048C255.976 103.948 255.477 104.248 255.377 105.047C255.577 102.849 253.58 102.349 253.381 104.248C253.381 102.948 251.983 102.649 251.683 104.448C251.783 102.948 250.485 102.849 250.186 104.448L249.986 105.747C249.886 106.547 250.286 107.746 251.384 107.546C251.384 108.246 253.081 108.945 253.181 108.546C253.381 109.245 254.678 109.745 255.078 109.245C255.277 109.545 255.477 109.845 255.876 109.945C256.475 110.145 257.374 109.945 258.372 109.145L259.071 108.546L257.374 107.546L257.174 105.647Z" fill="#C76C61"/>
<path d="M255.577 105.347C255.877 104.148 256.276 104.048 256.276 104.048C255.877 103.948 255.377 104.248 255.278 105.047C254.579 108.646 254.878 109.345 254.878 109.345C255.078 109.645 255.278 109.945 255.677 110.045C255.677 110.045 254.479 110.245 255.577 105.347Z" fill="#DFA097"/>
<path d="M253.68 104.348C253.98 103.148 254.379 103.048 254.379 103.048C253.98 102.949 253.48 103.248 253.381 104.048C252.682 107.646 252.981 108.346 252.981 108.346C253.181 108.646 252.981 108.846 253.78 109.345C253.78 109.345 252.682 108.546 253.68 104.348Z" fill="#DFA097"/>
<path d="M251.983 104.248C252.282 103.248 252.682 103.148 252.682 103.148C252.282 103.048 251.883 103.348 251.683 103.948C250.885 107.046 251.184 107.646 251.184 107.646C251.284 107.946 251.184 108.146 251.883 108.446C251.983 108.446 250.985 107.846 251.983 104.248Z" fill="#DFA097"/>
<path d="M250.485 104.148C250.785 103.348 251.084 103.348 251.084 103.348C250.785 103.348 250.386 103.548 250.286 104.048C249.587 106.047 249.886 106.647 249.886 106.647C249.886 106.747 250.086 107.346 250.685 107.646C250.585 107.446 249.487 106.847 250.485 104.148Z" fill="#DFA097"/>
<path d="M257.174 107.646V108.746C257.174 108.746 257.274 107.746 257.474 107.846L257.174 107.646Z" fill="#955149"/>
<path d="M251.084 103.248C251.084 103.248 251.484 103.448 251.384 104.348C251.284 105.247 251.284 105.947 251.284 105.947L251.584 104.448C251.684 104.448 251.784 103.448 251.084 103.248Z" fill="#8F4035"/>
<path d="M252.682 103.148C252.682 103.148 253.181 103.448 253.081 104.248C252.981 105.047 252.981 106.447 252.981 106.447L253.381 104.248C253.381 104.248 253.481 103.248 252.682 103.148Z" fill="#8F4035"/>
<path d="M254.379 103.048C254.379 103.048 255.178 103.348 255.078 104.348C254.978 105.347 254.978 106.947 254.978 106.947L255.278 105.047C255.377 105.047 255.577 103.248 254.379 103.048Z" fill="#8F4035"/>
<path d="M256.376 104.048C256.376 104.048 256.975 104.448 256.975 105.347C256.875 106.247 257.174 107.646 257.174 107.646V105.647C257.174 105.647 257.174 104.348 256.376 104.048Z" fill="#8F4035"/>
</g>
<defs>
<clipPath id="clip0">
<rect width="364" height="200" fill="white"/>
</clipPath>
</defs>
</svg>
